<svg width="859" height="859" viewBox="0 0 859 859" fill="none" xmlns="http://www.w3.org/2000/svg">
<circle cx="429.5" cy="429.5" r="429.5" fill="#0a0b0b"/>
<path d="M409.5 771.42C407.3 771.21 399.88 770.54 393 769.94C331.08 764.54 272.53 746.68 225.79 718.92C206.86 707.68 192.39 696.22 188.28 689.22C183.7 681.41 184.14 662.13 189.5 635.5C204.49 561.01 248.89 502.84 316.22 469.49C333.25 461.05 340.39 458.57 344.65 459.6C346.22 459.98 352.26 462.23 358.08 464.6C382.44 474.52 403 478.5 429.5 478.41C453.8 478.34 472.51 474.88 494.21 466.47C499.32 464.48 506.12 461.92 509.33 460.76L515.16 458.66L522.03 460.87C530.22 463.51 550.18 473.19 562 480.27C622.59 516.52 662.39 579.31 671.46 652.97C675.19 683.22 673.33 688.21 652.29 704.3C610.72 736.11 542.27 761.67 477.5 769.56C465.31 771.05 418.87 772.32 409.5 771.42ZM407.66 436.5C391.44 433.85 380.03 430.25 366.5 423.51C350.85 415.72 342.59 409.74 329.99 397.07C311.46 378.44 299.06 355.95 292.46 329C289.91 318.59 289.35 290.61 291.44 277.88C299.18 230.82 332.34 188.97 375.6 171.66C392.07 165.07 403.29 162.86 423.2 162.27C449.96 161.49 467.2 164.74 487.58 174.43C516.43 188.14 538.18 209.08 552.34 236.78C563.29 258.18 567.29 275 567.24 299.5C567.19 329.28 560.37 352.16 544.29 376.44C536.28 388.54 518.9 406.37 507.98 413.7C492.56 424.06 475.94 431.12 457.69 435.08C445.3 437.78 419.86 438.5 407.66 436.5Z" fill="#FAFAFA"/>
</svg>
